<?xml version="1.0" ?><svg xmlns="http://www.w3.org/2000/svg" xmlns:xlink="http://www.w3.org/1999/xlink" version="1.1" id="Layer_1" viewBox="0 0 24 24" enable-background="new 0 0 24 24" xml:space="preserve"><g><path d="M13.2,9.77c-0.08,0.04-0.12,0.14-0.08,0.23l0.41,0.84c0.07,0.14,0.19,0.24,0.34,0.27c0.15,0.04,0.3,0,0.43-0.09l4.5-3.43   c0.17-0.13,0.27-0.31,0.3-0.52c0.03-0.21-0.02-0.41-0.15-0.58l-0.43-0.58c-0.26-0.35-0.76-0.42-1.11-0.16l-4.94,3.68   c-0.16,0.12-0.22,0.35-0.14,0.53l1.71,3.71c0.02,0.05,0.01,0.11-0.04,0.14L8.4,18.07H7.26l-2-2.69c-0.04-0.05-0.03-0.13,0.02-0.17   l6.51-4.85c0.08-0.06,0.09-0.16,0.03-0.24c-0.06-0.08-0.16-0.09-0.24-0.03l-6.51,4.85c-0.2,0.15-0.25,0.44-0.09,0.65l1.85,2.48   H5.12c-0.09,0-0.17,0.08-0.17,0.17s0.08,0.17,0.17,0.17h2.05c0,0,0,0,0,0c0,0,0,0,0,0h1.29c0,0,0,0,0,0c0,0,0,0,0,0h10.41   c0.09,0,0.17-0.08,0.17-0.17s-0.08-0.17-0.17-0.17H8.97l5.25-3.99c0.17-0.13,0.23-0.35,0.14-0.55l0,0l-1.71-3.71   c-0.02-0.04-0.01-0.09,0.03-0.11l4.94-3.68c0.2-0.15,0.48-0.11,0.63,0.09l0.43,0.58c0.15,0.2,0.11,0.48-0.09,0.62l-4.5,3.43   c-0.05,0.04-0.11,0.04-0.14,0.03c-0.05-0.01-0.09-0.04-0.11-0.09l-0.41-0.84C13.38,9.76,13.28,9.72,13.2,9.77z"/><path d="M6,15.43c0,0.32,0.26,0.58,0.58,0.58s0.58-0.26,0.58-0.58c0-0.32-0.26-0.58-0.58-0.58S6,15.11,6,15.43z M6.82,15.43   c0,0.13-0.11,0.24-0.24,0.24s-0.24-0.11-0.24-0.24c0-0.13,0.11-0.24,0.24-0.24S6.82,15.3,6.82,15.43z"/><path d="M13.75,9.62c0.04,0,0.07-0.01,0.11-0.04l3.52-2.75c0.07-0.06,0.09-0.17,0.03-0.24c-0.06-0.07-0.17-0.09-0.24-0.03   l-3.52,2.75c-0.07,0.06-0.09,0.17-0.03,0.24C13.65,9.6,13.7,9.62,13.75,9.62z"/></g></svg>