<?xml version="1.0" ?><svg xmlns="http://www.w3.org/2000/svg" xmlns:xlink="http://www.w3.org/1999/xlink" version="1.1" id="Layer_1" viewBox="0 0 24 24" enable-background="new 0 0 24 24" xml:space="preserve"><g><path d="M8.17,6.71l8.6,3.86c0.07,0.03,0.14,0.05,0.21,0.05c0.12,0,0.23-0.04,0.33-0.12c0.15-0.12,0.22-0.32,0.18-0.51l-0.13-0.62   c-0.07-0.32-0.21-0.62-0.42-0.88c-0.21-0.25-0.47-0.46-0.77-0.59l-0.56-0.25l0.16-0.36c0.26-0.58,0-1.26-0.58-1.52l-2.38-1.07   c-0.28-0.13-0.59-0.14-0.88-0.03c-0.29,0.11-0.52,0.32-0.64,0.6l-0.23,0.52c-0.04,0.09,0,0.19,0.09,0.23l3.34,1.5   c0.09,0.04,0.19,0,0.23-0.09c0.04-0.09,0-0.19-0.09-0.23l-3.19-1.43l0.16-0.36c0.09-0.2,0.25-0.35,0.45-0.42   c0.2-0.08,0.42-0.07,0.62,0.02l2.38,1.07c0.41,0.18,0.59,0.66,0.41,1.07l-0.23,0.52c-0.04,0.09,0,0.19,0.09,0.23l0.71,0.32   c0.51,0.23,0.88,0.69,1,1.23l0.13,0.62c0.01,0.07-0.01,0.13-0.06,0.18c-0.05,0.04-0.12,0.05-0.19,0.02L8.31,6.4   C8.25,6.37,8.21,6.31,8.2,6.25c0-0.07,0.03-0.13,0.09-0.16l0.76-0.43c0.35-0.2,0.79-0.22,1.16-0.05l0.29,0.14   c0.09,0.04,0.19,0,0.23-0.08c0.04-0.09,0-0.19-0.08-0.23l-0.29-0.14c0,0,0,0,0,0C9.89,5.07,9.34,5.1,8.89,5.35L8.12,5.78   c-0.17,0.1-0.27,0.28-0.26,0.48C7.87,6.46,7.99,6.63,8.17,6.71z"/><path d="M18.1,12.26h-0.79v-0.73c0-0.09-0.08-0.17-0.17-0.17H7.01c-0.09,0-0.17,0.08-0.17,0.17v0.73H6.05   c-0.38,0-0.69,0.31-0.69,0.69v1.29c0,0.38,0.31,0.69,0.69,0.69h0.79v1.94c0,0.34,0.07,0.68,0.2,0.99c0.13,0.3,0.31,0.57,0.54,0.81   c0.23,0.23,0.5,0.42,0.81,0.54c0.31,0.13,0.65,0.2,0.99,0.2h5.39c0.34,0,0.68-0.07,0.99-0.2c0.3-0.13,0.57-0.31,0.81-0.54   c0.23-0.23,0.42-0.5,0.54-0.81c0.13-0.31,0.2-0.65,0.2-0.99v-1.94h0.79c0.38,0,0.69-0.31,0.69-0.69v-1.29   C18.79,12.57,18.48,12.26,18.1,12.26z M6.84,14.59H6.05c-0.19,0-0.35-0.16-0.35-0.35v-1.29c0-0.19,0.16-0.35,0.35-0.35h0.79V14.59z    M16.97,16.87c0,1.21-0.99,2.2-2.2,2.2H9.37c-1.21,0-2.2-0.99-2.2-2.2v-2.11v-2.33v-0.73h9.79V16.87z M18.45,14.24   c0,0.19-0.16,0.35-0.35,0.35h-0.79V12.6h0.79c0.19,0,0.35,0.16,0.35,0.35V14.24z"/><path d="M8.03,16.35c0.09,0,0.17-0.08,0.17-0.17v-2.38c0-0.09-0.08-0.17-0.17-0.17s-0.17,0.08-0.17,0.17v2.38   C7.86,16.28,7.94,16.35,8.03,16.35z"/><path d="M8.03,17.13c0.09,0,0.17-0.08,0.17-0.17v-0.24c0-0.09-0.08-0.17-0.17-0.17s-0.17,0.08-0.17,0.17v0.24   C7.86,17.05,7.94,17.13,8.03,17.13z"/><path d="M8.17,10.05c0.57,0,1.03-0.46,1.03-1.03S8.74,7.99,8.17,7.99S7.13,8.45,7.13,9.02S7.6,10.05,8.17,10.05z M8.17,8.33   c0.38,0,0.69,0.31,0.69,0.69c0,0.38-0.31,0.69-0.69,0.69c-0.38,0-0.69-0.31-0.69-0.69C7.47,8.64,7.78,8.33,8.17,8.33z"/><path d="M5.87,9.08c0.13,0,0.27-0.04,0.39-0.12c0.15-0.1,0.25-0.25,0.29-0.43c0.04-0.18,0-0.36-0.09-0.51   C6.36,7.88,6.2,7.78,6.03,7.75C5.85,7.72,5.67,7.76,5.52,7.86c-0.31,0.21-0.4,0.63-0.2,0.93C5.45,8.98,5.66,9.08,5.87,9.08z    M5.71,8.14L5.71,8.14c0.06-0.04,0.13-0.06,0.2-0.06c0.02,0,0.04,0,0.06,0.01C6.05,8.1,6.13,8.15,6.17,8.22   c0.05,0.07,0.06,0.16,0.04,0.24C6.2,8.55,6.15,8.63,6.07,8.68C5.91,8.78,5.7,8.75,5.61,8.6C5.51,8.45,5.55,8.25,5.71,8.14z"/><path d="M9.81,9.58L9.81,9.58c-0.31,0.21-0.4,0.63-0.2,0.93c0.1,0.15,0.25,0.25,0.43,0.28c0.04,0.01,0.08,0.01,0.12,0.01   c0.14,0,0.27-0.04,0.39-0.12c0.15-0.1,0.25-0.25,0.29-0.43c0.04-0.18,0-0.36-0.09-0.51C10.54,9.45,10.12,9.38,9.81,9.58z    M10.5,10.19c-0.02,0.09-0.07,0.16-0.15,0.22c-0.08,0.05-0.17,0.07-0.26,0.06c-0.09-0.02-0.16-0.06-0.21-0.13   c-0.1-0.15-0.05-0.35,0.1-0.46v0c0.16-0.1,0.36-0.07,0.46,0.08C10.51,10.02,10.52,10.1,10.5,10.19z"/><path d="M5.75,7.22c0.04,0.01,0.08,0.01,0.12,0.01c0.14,0,0.27-0.04,0.39-0.12c0.15-0.1,0.25-0.25,0.29-0.43   c0.04-0.18,0-0.36-0.09-0.51C6.36,6.03,6.2,5.93,6.03,5.9C5.85,5.87,5.67,5.9,5.52,6.01c-0.15,0.1-0.25,0.25-0.29,0.43   c-0.04,0.18,0,0.36,0.09,0.51C5.42,7.09,5.57,7.19,5.75,7.22z M5.56,6.51c0.02-0.09,0.07-0.16,0.15-0.22h0   c0.06-0.04,0.13-0.06,0.2-0.06c0.02,0,0.04,0,0.06,0.01C6.05,6.25,6.13,6.3,6.17,6.37c0.05,0.07,0.06,0.16,0.04,0.24   C6.2,6.7,6.15,6.78,6.07,6.83C5.99,6.88,5.9,6.9,5.81,6.88C5.73,6.87,5.65,6.82,5.61,6.75C5.56,6.68,5.54,6.59,5.56,6.51z"/></g></svg>