<?xml version="1.0" ?><svg xmlns="http://www.w3.org/2000/svg" xmlns:xlink="http://www.w3.org/1999/xlink" version="1.1" id="Layer_1" viewBox="0 0 24 24" enable-background="new 0 0 24 24" xml:space="preserve"><path d="M20.62,16.24c-0.1-0.09-0.23-0.18-0.41-0.27c-0.3-0.14-0.73-0.28-1.27-0.4L19,10.95c0-0.25-0.13-0.48-0.35-0.61l-2.01-1.13  C16.7,9,16.74,8.77,16.74,8.54c0-0.55-0.21-1.07-0.6-1.46C15.83,6.77,15.43,6.57,15,6.5c0.14-0.17,0.32-0.32,0.52-0.4  c0.09-0.04,0.13-0.14,0.09-0.23c-0.04-0.09-0.14-0.13-0.23-0.09c-0.32,0.14-0.6,0.39-0.78,0.69c-0.52,0.02-1.01,0.23-1.39,0.6  c-0.39,0.39-0.6,0.91-0.6,1.46c0,0.06,0,0.12,0.01,0.19L6.34,10.7c-0.09,0.03-0.14,0.12-0.11,0.21c0.02,0.07,0.09,0.12,0.16,0.12  c0.02,0,0.03,0,0.05-0.01l6.24-1.95c0.09,0.35,0.27,0.67,0.54,0.93c0.39,0.39,0.91,0.6,1.46,0.6c0.55,0,1.07-0.21,1.46-0.6  c0.14-0.14,0.26-0.3,0.36-0.48l1.98,1.11c0.11,0.06,0.18,0.18,0.18,0.31l-0.07,4.77l-0.01,0.37c0,0.19-0.16,0.34-0.34,0.34  L5.69,16.44c0,0,0,0,0,0c-0.09,0-0.18-0.04-0.24-0.1c-0.07-0.07-0.1-0.15-0.1-0.24l0-0.37l0-3.63c0-0.19,0.15-0.34,0.33-0.34  l12.44-0.36c0.09,0,0.17-0.08,0.17-0.18c0-0.09-0.08-0.17-0.18-0.17L5.67,11.42c-0.18,0.01-0.35,0.08-0.47,0.21  C5.07,11.76,5,11.93,5,12.11l0,3.49c-0.52,0.12-0.93,0.25-1.23,0.39c-0.17,0.08-0.31,0.17-0.4,0.26c-0.12,0.11-0.17,0.24-0.17,0.37  c0,0.28,0.26,0.51,0.79,0.72c0.45,0.18,1.08,0.33,1.88,0.47c1.64,0.27,3.81,0.42,6.13,0.42c2.31,0,4.49-0.15,6.13-0.42  c0.8-0.13,1.44-0.29,1.88-0.47c0.53-0.21,0.79-0.44,0.79-0.72C20.8,16.48,20.74,16.36,20.62,16.24z M14.68,10.26  c-0.95,0-1.72-0.77-1.72-1.72c0-0.87,0.65-1.59,1.48-1.71c-0.04,0.12-0.07,0.24-0.08,0.36c-0.05-0.01-0.1-0.03-0.14-0.05  c-0.08-0.04-0.19-0.01-0.23,0.08c-0.04,0.08-0.01,0.19,0.08,0.23c0.15,0.07,0.31,0.11,0.47,0.11c0.03,0,0.07,0,0.1,0  c0.2-0.02,0.39-0.09,0.55-0.2c0.08-0.06,0.09-0.16,0.04-0.24c-0.06-0.08-0.16-0.09-0.24-0.04c-0.08,0.06-0.18,0.1-0.29,0.12  c0.02-0.13,0.05-0.26,0.1-0.38c0.89,0.07,1.59,0.81,1.59,1.72C16.4,9.49,15.63,10.26,14.68,10.26z M19.88,17.02  c-0.42,0.17-1.03,0.32-1.81,0.45c-1.62,0.27-3.78,0.42-6.07,0.42c-2.29,0-4.45-0.15-6.07-0.42c-0.78-0.13-1.39-0.28-1.81-0.45  c-0.42-0.17-0.57-0.32-0.57-0.4c0-0.07,0.1-0.19,0.38-0.32c0.26-0.12,0.62-0.24,1.08-0.35l0,0.15c0,0.18,0.07,0.36,0.2,0.49  c0.13,0.13,0.3,0.2,0.48,0.2c0,0,0,0,0,0l12.55-0.02c0.18,0,0.35-0.07,0.48-0.2c0.13-0.13,0.2-0.3,0.2-0.48l0-0.16  c0.48,0.11,0.86,0.23,1.13,0.36c0.29,0.14,0.4,0.26,0.4,0.33C20.45,16.7,20.31,16.85,19.88,17.02z"/></svg>