<?xml version="1.0" ?><svg xmlns="http://www.w3.org/2000/svg" xmlns:xlink="http://www.w3.org/1999/xlink" version="1.1" id="Layer_1" viewBox="0 0 24 24" enable-background="new 0 0 24 24" xml:space="preserve"><g><path d="M11.67,4.22h-0.24c-0.27,0-0.49,0.22-0.49,0.49v2.89c0,0.08-0.06,0.14-0.14,0.14h-0.06c-0.08,0-0.14-0.06-0.14-0.14   l-0.07-2.9c0-0.13-0.05-0.25-0.15-0.34c-0.09-0.09-0.21-0.14-0.34-0.14H9.7c-0.27,0-0.49,0.22-0.49,0.49v2.89   c0,0.08-0.06,0.14-0.14,0.14c-0.08,0-0.14-0.06-0.14-0.14V4.7c0-0.27-0.22-0.49-0.49-0.49H8.11c-0.27,0-0.49,0.22-0.49,0.49v3.53   c0,0.33,0.06,0.65,0.18,0.96c0.12,0.31,0.3,0.58,0.53,0.82l0.69,0.73l-0.42,7.69c-0.01,0.18,0.02,0.35,0.08,0.52   c0.06,0.16,0.15,0.3,0.27,0.43c0.12,0.12,0.26,0.22,0.41,0.29c0.16,0.07,0.33,0.11,0.51,0.11c0.18,0,0.35-0.04,0.51-0.11   c0.16-0.07,0.3-0.17,0.41-0.29c0.12-0.12,0.21-0.27,0.27-0.43c0.06-0.17,0.09-0.34,0.08-0.52l-0.4-7.3   c-0.01-0.09-0.09-0.17-0.18-0.16c-0.09,0.01-0.17,0.09-0.16,0.18l0.4,7.3c0.01,0.26-0.08,0.5-0.25,0.69   c-0.18,0.19-0.42,0.29-0.68,0.29c-0.26,0-0.5-0.1-0.68-0.29c-0.18-0.19-0.27-0.43-0.25-0.69l0.42-7.77c0-0.05-0.01-0.09-0.05-0.13   L8.59,9.78c-0.4-0.42-0.62-0.97-0.62-1.55V4.7c0-0.08,0.07-0.14,0.14-0.14h0.32c0.08,0,0.14,0.06,0.14,0.14v2.89   c0,0.27,0.22,0.49,0.49,0.49c0.27,0,0.49-0.22,0.49-0.49V4.7c0-0.08,0.06-0.14,0.14-0.14h0.34c0.08,0,0.14,0.06,0.14,0.14l0.07,2.9   c0,0.13,0.05,0.25,0.15,0.34c0.09,0.09,0.21,0.14,0.34,0.14h0.06c0.27,0,0.49-0.22,0.49-0.49V4.7c0-0.08,0.06-0.14,0.14-0.14h0.24   c0.08,0,0.14,0.06,0.14,0.14v3.57c0,0.56-0.2,1.09-0.57,1.5l-0.55,0.62c-0.07,0.07-0.16,0.12-0.26,0.12h-0.4   c-0.09,0-0.17,0.08-0.17,0.17c0,0.09,0.08,0.17,0.17,0.17h0.4c0.2,0,0.39-0.08,0.52-0.23L11.5,10c0.43-0.48,0.66-1.09,0.66-1.73   V4.7C12.16,4.44,11.94,4.22,11.67,4.22z"/><path d="M16.14,4.21c-0.15-0.07-0.32-0.04-0.44,0.06c-0.46,0.39-0.83,0.86-1.11,1.39c-0.28,0.53-0.45,1.11-0.51,1.71l-0.51,5.07   c-0.01,0.12,0.03,0.23,0.1,0.32c0.08,0.09,0.19,0.14,0.3,0.14h1.72c0.09,0,0.17-0.08,0.17-0.17c0-0.09-0.08-0.17-0.17-0.17h-1.72   c-0.03,0-0.04-0.01-0.05-0.02c-0.01-0.01-0.02-0.03-0.02-0.05l0.51-5.07c0.11-1.12,0.65-2.14,1.5-2.87   c0.03-0.02,0.06-0.02,0.07-0.01s0.04,0.02,0.04,0.06v14.25c0,0.36-0.3,0.66-0.66,0.66c-0.18,0-0.35-0.07-0.48-0.21   c-0.13-0.13-0.19-0.31-0.18-0.49l0.3-5.32h0.27c0.09,0,0.17-0.08,0.17-0.17c0-0.09-0.08-0.17-0.17-0.17h-0.43   c-0.09,0-0.17,0.07-0.17,0.16l-0.31,5.48c-0.02,0.28,0.08,0.54,0.27,0.74c0.19,0.2,0.45,0.31,0.73,0.31c0.55,0,1-0.45,1-1V4.58   C16.37,4.42,16.28,4.27,16.14,4.21z"/></g></svg>